<?xml version="1.0" encoding="UTF-8"?>
<svg id="Capa_2" data-name="Capa 2" xmlns="http://www.w3.org/2000/svg" viewBox="0 0 63.04 52.46">
  <g id="Capa_1-2" data-name="Capa 1">
    <path d="M11.76,45.45c-1.22,0-2.31,0-3.4,0-1.19,0-1.86-.7-1.85-1.91,0-1.19,.69-1.9,1.88-1.9,4.75,0,9.5,0,14.25,0,5.43,0,10.87,0,16.3,.01,.54,0,.8-.11,.93-.69,.4-1.83,.88-3.64,1.36-5.58-.34,0-.61,0-.87,0-10.82,0-21.64,0-32.45,0-1.49,0-2.12-.48-2.46-1.93C3.66,25.9,1.88,18.35,.11,10.8c-.43-1.84,.41-2.87,2.35-2.87,10.26,0,20.52,0,30.78,0,4.65,0,9.29-.02,13.94,.02,.72,0,.95-.24,1.1-.88,.39-1.73,.83-3.45,1.25-5.17C49.88,.48,50.48,0,51.93,0,54.88,0,57.83,0,60.77,0c1.35,0,2.26,.79,2.27,1.93,.01,1.17-.93,2-2.3,2.01-2.34,0-4.67,.02-7.01-.01-.57,0-.84,.13-.98,.72-2.79,11.34-5.61,22.68-8.42,34.01-.41,1.64-.81,3.29-1.22,4.93-.42,1.67-1.14,1.95-2.33,1.85-.37-.03-.75,0-1.37,0,1.45,1.05,2.08,2.29,1.86,3.89-.13,.95-.6,1.72-1.34,2.31-1.57,1.25-3.85,1.02-5.13-.51-1.41-1.69-1.09-3.85,.9-5.62H15.57c1.04,.82,1.75,1.8,1.78,3.11,.03,1.31-.5,2.37-1.56,3.14-1.54,1.12-3.72,.84-4.95-.61-1.43-1.69-1.14-3.66,.92-5.71ZM47.08,11.78h-7.98c-.32,2.63-.64,5.22-.97,7.88,2.28,0,4.46,0,6.63-.02,.16,0,.41-.21,.45-.37,.63-2.47,1.24-4.95,1.86-7.49Zm-42.45-.04c.61,2.62,1.2,5.15,1.8,7.67,.02,.1,.21,.23,.33,.23,2.1,.01,4.19,.01,6.27,.01,.04-.12,.08-.17,.07-.21-.26-2.44-.51-4.88-.8-7.32-.02-.14-.28-.36-.43-.36-2.38-.02-4.76-.02-7.23-.02Zm12.46,7.87h6.62v-7.83h-7.5c.29,2.63,.58,5.21,.87,7.83Zm18.05-7.82h-7.4v7.83h6.43c.32-2.62,.64-5.2,.97-7.83Zm1.53,19.64c1.8,0,3.5,.01,5.19-.02,.16,0,.4-.27,.46-.46,.24-.85,.43-1.72,.64-2.58,.39-1.56,.77-3.12,1.17-4.72h-6.5c-.32,2.57-.63,5.11-.97,7.77Zm-19.13-7.78c.3,2.64,.59,5.19,.88,7.73h5.3v-7.73h-6.18Zm-10.12,0c.59,2.53,1.15,4.97,1.74,7.4,.04,.15,.25,.36,.39,.36,1.61,.03,3.23,.02,4.92,.02-.3-2.65-.59-5.2-.88-7.78H7.42Zm25.3,7.75c.32-2.62,.64-5.15,.95-7.72h-5.91v7.72h4.95Z"/>
  </g>
</svg>