<?xml version="1.0" encoding="utf-8"?>
<!-- Generator: Adobe Illustrator 27.5.0, SVG Export Plug-In . SVG Version: 6.00 Build 0)  -->
<svg version="1.1"
	 id="Capa_1" xmlns:dc="http://purl.org/dc/elements/1.1/" xmlns:rdf="http://www.w3.org/1999/02/22-rdf-syntax-ns#" xmlns:svg="http://www.w3.org/2000/svg" xmlns:cc="http://creativecommons.org/ns#" xmlns:inkscape="http://www.inkscape.org/namespaces/inkscape" xmlns:sodipodi="http://sodipodi.sourceforge.net/DTD/sodipodi-0.dtd" inkscape:version="1.0.2 (e86c870879, 2021-01-15, custom)"
	 xmlns="http://www.w3.org/2000/svg" xmlns:xlink="http://www.w3.org/1999/xlink" x="0px" y="0px" viewBox="0 0 44.1 54.8"
	 style="enable-background:new 0 0 44.1 54.8;" xml:space="preserve">
<style type="text/css">
	.st0{fill:#8C6239;}
</style>
<sodipodi:namedview  bordercolor="#666666" borderopacity="1" gridtolerance="10" guidetolerance="10" id="namedview61" inkscape:current-layer="Capa_1" inkscape:cx="85.860001" inkscape:cy="32.939999" inkscape:pageopacity="0" inkscape:pageshadow="2" inkscape:window-height="1017" inkscape:window-maximized="1" inkscape:window-width="1920" inkscape:window-x="-8" inkscape:window-y="-8" inkscape:zoom="5.951549" objecttolerance="10" pagecolor="#ffffff" showgrid="false">
	</sodipodi:namedview>
<path id="path18" class="st0" d="M43,40.9c0,0,0-0.1,0-0.1c0-4.2-1-8.3-3-12c0,0,0,0,0-0.1c-3.1-6-5-12.4-5.7-19.1
	c-0.3-3.9-3.3-7.2-7.2-7.8h-0.1c-1.7-0.2-3.3-0.3-5-0.3c-1.6-0.1-3.1,0.1-4.6,0.3h-0.1c-3.9,0.7-6.8,3.8-7.1,7.7
	c-0.7,6.7-2.6,13.2-5.7,19.1l0,0.1c-2,3.7-3,7.8-3,12v0.4c0,0.1,0,0.3,0,0.4c0.5,4.4,3.5,8.2,7.6,9.8l0.8,0.3c4,1.3,8.2,2,12.4,2
	c4.2,0,8.4-0.7,12.3-2c0.3-0.1,0.6-0.2,0.9-0.3c4.1-1.6,7-5.4,7.6-9.8c0-0.1,0.1-0.3,0.1-0.4C43,41,43,41,43,40.9L43,40.9z
	 M32.9,9.3c0.4,3.1,1,6.2,1.8,9.3l0,0c-2-0.9-3.8-2.1-5.5-3.5c-0.9-0.8-1.9-1.5-3-2.1l4.4-8.4C31.9,5.8,32.7,7.5,32.9,9.3z
	 M17.5,2.8h0.2c1.4-0.2,2.8-0.3,4.2-0.3c1.6,0,3.1,0.1,4.6,0.2c0.1,0,0.1,0,0.2,0C27.8,3,29,3.4,29.9,4.1l-4.7,9l0.2-0.4
	c-1-0.5-2.1-0.7-3.2-0.7l0,0c-1.1,0-2.2,0.2-3.2,0.7l0.2,0.4l-4.7-9C15.4,3.4,16.4,3,17.5,2.8z M11.5,9.3c0.1-1.8,0.9-3.4,2.2-4.6
	l4.4,8.5c-1.1,0.6-2.1,1.3-3,2.1c-1.7,1.4-3.5,2.5-5.4,3.4C10.5,15.5,11.1,12.4,11.5,9.3z M9.6,19.9c2.3-1,4.4-2.2,6.3-3.8
	c2-1.6,3.8-3,6.3-3s4.3,1.4,6.3,3c1.9,1.6,4,2.9,6.2,3.8c0.2,0.7,0.4,1.3,0.6,1.9l-0.1-0.1l0.5,1.3c-2-0.8-3.9-1.8-5.7-3
	c-2.5-1.6-4.6-3-7.9-3s-5.4,1.4-7.9,3c-1.8,1.2-3.7,2.2-5.7,3C9,22,9.3,20.9,9.6,19.9z M2.5,40.8c0.1-3.9,1.1-7.7,2.9-11.2
	c0-0.1,0.1-0.1,0.1-0.2c0.9-1.8,1.6-3.4,2.3-5l0,0c2.6-0.8,5-2,7.2-3.6c2.3-1.5,4.3-2.7,7.1-2.7s4.8,1.3,7.1,2.7
	c2.2,1.5,4.7,2.8,7.2,3.6l0,0c0.6,1.6,1.4,3.3,2.3,5.1v0.1c1.9,3.4,2.9,7.3,2.9,11.2c0,0.2,0,0.2,0,0.3c-0.4,4-3,7.5-6.7,8.9
	c-0.3,0.1-0.5,0.2-0.8,0.3c-1.8,0.6-3.7,1-5.6,1.3c2.8-2.4,5-5.5,6.3-9l0,0c0.7-1.7,1.1-3.6,1.1-5.5c0-5.5-3.2-10.4-8.1-12.7
	c-1.7-2.8-3.7-4.3-5.9-4.3s-4.2,1.5-5.9,4.3c-5,2.3-8.1,7.3-8.1,12.7c0,1,0.1,2,0.3,3l0,0l0,0l0,0c0.2,0.8,0.5,1.7,0.8,2.5l0,0
	c1.4,3.5,3.5,6.6,6.4,9c-1.9-0.3-3.8-0.8-5.6-1.4L9.2,50c-3.7-1.5-6.3-4.9-6.7-8.9C2.5,41,2.5,40.9,2.5,40.8z M31.1,37.1
	c0-1.1-0.1-2.2-0.2-3.3c1.4,0.5,2.7,1.1,3.9,1.8c0.1,0.5,0.1,1,0.1,1.5c0,0.9-0.1,1.8-0.3,2.7c-0.2,0.8-0.5,1.6-0.8,2.3
	c-0.3,0.6-0.5,1.3-0.8,1.9c-1,0.5-2.1,0.9-3.1,1.2C30.7,42.6,31.1,39.9,31.1,37.1z M28.9,45.6c-1,0.2-2,0.4-3,0.6l-0.5,0.1l-0.6,0.1
	c-0.4,0-0.7,0.1-1.1,0.1h-0.3h-0.9V32.5c2.5,0,5,0.4,7.4,1.1c0.2,1.2,0.2,2.4,0.2,3.6C30.2,40,29.8,42.8,28.9,45.6z M30.8,32.9
	c-0.3-2.2-0.9-4.4-1.8-6.4c2.9,1.8,4.9,4.8,5.6,8.1C33.4,33.9,32.1,33.3,30.8,32.9z M29.8,32.6c-2.4-0.7-4.8-1-7.2-1v-7.1
	c1.8,0,3.5,0.5,5.1,1.2C28.7,27.9,29.4,30.2,29.8,32.6z M22.2,23.2c-1.5,0-3.1,0.3-4.5,0.8C19,22,20.6,21,22.2,21s3.2,1,4.5,2.9
	C25.2,23.4,23.7,23.2,22.2,23.2L22.2,23.2z M21.7,24.5v7.1c-2.4,0-4.9,0.3-7.2,1c0.4-2.4,1.1-4.7,2.1-6.9
	C18.2,25,19.9,24.6,21.7,24.5z M21.7,32.5v13.9h-0.9h-0.3c-0.4,0-0.7,0-1.1-0.1l-0.6-0.1l-0.5-0.1c-1-0.1-2-0.3-3-0.6
	c-0.9-2.7-1.3-5.6-1.3-8.4c0-1.2,0.1-2.4,0.2-3.6C16.7,32.9,19.2,32.5,21.7,32.5L21.7,32.5z M13.6,32.9c-1.3,0.4-2.6,1-3.9,1.6
	c0.7-3.4,2.7-6.3,5.6-8.1C14.5,28.5,13.9,30.7,13.6,32.9L13.6,32.9z M13.4,33.9c-0.1,1.1-0.2,2.2-0.2,3.3c0,2.8,0.4,5.5,1.2,8.1
	c-1.1-0.3-2.1-0.7-3.1-1.2c-0.3-0.6-0.6-1.2-0.9-1.9c-0.3-0.8-0.6-1.6-0.8-2.4c-0.2-0.9-0.3-1.8-0.3-2.7c0-0.5,0-1,0.1-1.5
	C10.7,34.9,12.1,34.3,13.4,33.9L13.4,33.9z M16.7,46.7L16.7,46.7c0.5,0.1,0.9,0.2,1.4,0.2l0.5,0.1l0.6,0.1c0.4,0,0.8,0.1,1.2,0.1
	h0.3c0.5,0,0.9,0,1.4,0s0.9,0,1.4,0h0.3c0.4,0,0.8,0,1.2-0.1l0.6-0.1l0.5-0.1c0.5-0.1,1-0.1,1.4-0.2l0,0c1.6-0.3,3.2-0.8,4.7-1.4
	C30.7,48,28.6,50.3,26,52c-1.3,0.1-2.6,0.2-4,0.2s-2.6-0.1-4-0.2c-2.5-1.8-4.6-4-6.2-6.7C13.5,46,15.1,46.4,16.7,46.7z M1.4,41.1
	c0,0,0,0.1,0,0.2C1.4,41.2,1.4,41.1,1.4,41.1z M43,41.1c0,0,0,0.1,0,0.2S43,41.1,43,41.1L43,41.1z"/>
</svg>
