<?xml version="1.0" encoding="UTF-8"?>
<svg id="Capa_2" data-name="Capa 2" xmlns="http://www.w3.org/2000/svg" viewBox="0 0 121.88 44.48">
  <defs>
    <style>
      .cls-1 {
        fill: #fff;
      }

      .cls-2 {
        fill: #765232;
      }
    </style>
  </defs>
  <g id="Capa_1-2" data-name="Capa 1">
    <g>
      <path class="cls-2" d="M121.87,33.81l-11.73,10.67H3.88c-2.07,0-3.75-1.67-3.76-3.73l-.11-14.94L23.6,2.34l4.02-1.78c4.49-.66,8.17,.47,8.17,.47,0,0,3.14,.92,3.83,3.69s.16,2.84,.16,2.84l2.02,8.11,2.06,3.77,9.18-9.36,2.27-1.4,5.09-.33,4.64,3.55,3.08-1.82,1.04,.74,3.74-2.52h1.12v10.51l8.14-4.76-3.9,5.43,10.95-5.12,6.07,.62,1.64-.86,1.1,1.78,3.11-1.81,1.06,1.36,2.15-.97-3.16,7.51,11.95-7.72,3.94-.15,3.18,2.19,1.11,3.98,.54,.53v12.97Z"/>
      <g>
        <path id="path6" class="cls-1" d="M65.44,14.38c.04,1.76-.7,3.45-2.03,4.61-1.17,1.06-2.84,1.6-5.01,1.61h-4.08l.04,6.39h-1.28l-.11-16.24c-.05-.75,.29-1.47,.9-1.91,.47-.34,1.04-.53,1.63-.52h3.78c1.66-.09,3.28,.51,4.48,1.64,1.14,1.18,1.75,2.78,1.68,4.42Zm-1.32,.04c.05-1.32-.41-2.61-1.28-3.6-.94-.94-2.23-1.44-3.56-1.36h-3.89c-.63,0-1.14,.52-1.14,1.15,0,.03,0,.06,0,.09l.06,8.75h4.48c1.39,.06,2.75-.41,3.82-1.31,1.03-.96,1.58-2.32,1.51-3.72Z"/>
        <path id="path8" class="cls-1" d="M69.14,10.84c.06,.38-.2,.73-.58,.79-.07,.01-.14,.01-.21,0-.51,0-.75-.25-.75-.78-.04-.37,.22-.7,.59-.75,.05,0,.11,0,.16,0,.53-.01,.79,.23,.79,.74Zm-.13,16.05h-1.08l-.09-12.51h1.09l.08,12.51Z"/>
        <path id="path10" class="cls-1" d="M83.6,26.76h-1.3l-5.31-5.74-2.91,3.23v2.58h-1.07l-.13-18.51h1.12l.1,14.6,8.05-8.85h1.29l-5.75,6.32,5.92,6.38Z"/>
        <path id="path12" class="cls-1" d="M98.07,26.68h-1.08v-2.33c-.71,.98-1.7,1.73-2.84,2.15-.73,.29-1.52,.44-2.31,.45-1.72,.08-3.39-.56-4.61-1.78-1.19-1.26-1.83-2.94-1.77-4.67-.1-1.72,.48-3.42,1.62-4.71,1.2-1.24,2.87-1.92,4.6-1.85,2.1-.07,4.09,.97,5.23,2.74v-2.55h1.09l.07,12.55Zm-1.11-3.91v-1.7c.05-1.53-.39-3.03-1.27-4.28-.92-1.23-2.4-1.92-3.94-1.84-1.44-.06-2.83,.52-3.81,1.58-.94,1.09-1.42,2.51-1.34,3.94-.06,1.44,.43,2.85,1.37,3.94,1,1.04,2.41,1.58,3.85,1.49,.8,0,1.6-.19,2.32-.55,1.18-.57,2.16-1.47,2.82-2.6Z"/>
        <path id="path14" class="cls-1" d="M107.94,15.28h-.07c.09,0-.4-.05-1.49-.16-1.21,.01-2.34,.61-3.03,1.6-.83,1.27-1.22,2.79-1.11,4.3l.04,5.6h-1.06l-.09-12.52h1.06v2.45c.86-1.6,2.54-2.57,4.36-2.53,.15,0,.61,.07,1.39,.19l.02,1.08Z"/>
        <path id="path16" class="cls-1" d="M121.87,20.27c.08,1.72-.54,3.4-1.71,4.67-2.54,2.46-6.56,2.48-9.13,.06-1.2-1.24-1.85-2.92-1.79-4.65-.07-1.72,.55-3.41,1.73-4.67,2.54-2.48,6.58-2.5,9.15-.05,1.18,1.25,1.81,2.92,1.76,4.64Zm-1.15,0c.05-1.43-.45-2.83-1.4-3.91-.98-1.05-2.36-1.61-3.79-1.54-1.44-.05-2.83,.53-3.8,1.59-.93,1.09-1.41,2.5-1.34,3.94-.05,1.44,.45,2.84,1.4,3.91,.98,1.05,2.38,1.61,3.82,1.54,1.42,.04,2.79-.55,3.74-1.61,.94-1.08,1.44-2.49,1.38-3.92h0Z"/>
        <path id="path18" class="cls-1" d="M46.58,29.44v-.1c0-3.13-.76-6.21-2.24-8.96,0-.01,0-.03,0-.04-2.28-4.45-3.73-9.28-4.26-14.25-.26-2.95-2.48-5.35-5.39-5.84h-.1c-1.24-.17-2.49-.24-3.74-.22-1.16-.04-2.32,.04-3.47,.25h-.06c-2.88,.49-5.07,2.87-5.31,5.79-.53,4.98-1.97,9.83-4.26,14.29l-.04,.07c-1.47,2.75-2.24,5.81-2.24,8.93v.28c0,.11,0,.21,0,.32,.4,3.3,2.58,6.1,5.67,7.31l.63,.22c2.97,.99,6.09,1.5,9.23,1.49,3.13,0,6.24-.5,9.21-1.49,.22-.06,.44-.14,.66-.22,3.09-1.21,5.27-4.02,5.65-7.32,.02-.11,.04-.22,.04-.33v-.19h.02Zm-7.55-23.57c.31,2.34,.76,4.66,1.37,6.95h0c-1.48-.68-2.86-1.56-4.12-2.6-.71-.58-1.46-1.1-2.24-1.56l3.28-6.3c.99,.92,1.6,2.17,1.71,3.51ZM27.56,.99h.14c1.03-.15,2.06-.21,3.1-.19,1.16,0,2.32,.05,3.47,.19,.04,0,.08,0,.13,0,.87,.12,1.69,.45,2.4,.96l-3.51,6.72,.15-.28c-.76-.35-1.58-.53-2.41-.53h0c-.83,0-1.65,.18-2.4,.52l.15,.28-3.52-6.72c.68-.5,1.47-.83,2.31-.96Zm-4.53,4.83c.11-1.33,.7-2.56,1.67-3.47l3.31,6.33c-.78,.47-1.53,.99-2.24,1.57-1.24,1.02-2.6,1.89-4.06,2.56,.59-2.3,1.03-4.63,1.31-6.98Zm-1.4,7.94c1.7-.71,3.28-1.68,4.69-2.86,1.49-1.19,2.84-2.2,4.7-2.2s3.18,1.02,4.71,2.2c1.4,1.18,2.97,2.15,4.66,2.86,.14,.5,.29,.98,.45,1.43l-.05-.07,.35,.95c-1.5-.58-2.93-1.34-4.27-2.24-1.85-1.18-3.44-2.2-5.88-2.2s-4.03,1.02-5.87,2.2c-1.34,.9-2.77,1.66-4.27,2.24,.31-.76,.56-1.54,.78-2.32Zm-5.27,15.6c.05-2.92,.8-5.78,2.2-8.34,.02-.04,.04-.08,.05-.12,.66-1.31,1.21-2.55,1.69-3.74h0c1.92-.62,3.75-1.52,5.41-2.67,1.72-1.1,3.2-2.05,5.33-2.05s3.62,.95,5.33,2.05c1.66,1.15,3.48,2.06,5.4,2.67h0c.48,1.22,1.04,2.47,1.7,3.79v.08c1.4,2.57,2.15,5.44,2.2,8.37v.22c-.27,2.99-2.21,5.57-5,6.66-.19,.08-.39,.15-.59,.21-1.36,.43-2.75,.77-4.16,.99,2.1-1.82,3.73-4.13,4.74-6.72h0c.55-1.29,.84-2.69,.84-4.09,0-4.08-2.36-7.79-6.07-9.5-1.24-2.09-2.79-3.23-4.41-3.23s-3.17,1.14-4.41,3.23c-3.7,1.71-6.07,5.42-6.07,9.5,0,.75,.08,1.51,.25,2.24h0c.14,.63,.34,1.25,.6,1.84h0c1.01,2.59,2.64,4.9,4.74,6.72-1.41-.25-2.8-.6-4.16-1.05l-.61-.21c-2.79-1.09-4.73-3.67-5-6.66,0-.07,0-.13,0-.2Zm21.33-2.72c0-.82-.05-1.64-.15-2.46,1.02,.35,2,.81,2.91,1.37,.04,.37,.06,.75,.07,1.13,0,.67-.07,1.34-.22,2-.15,.59-.34,1.17-.56,1.74-.19,.48-.4,.95-.63,1.41-.75,.36-1.53,.65-2.33,.89,.6-1.97,.91-4.02,.91-6.08Zm-1.66,6.28c-.74,.18-1.49,.32-2.24,.42l-.35,.04-.43,.04c-.27,0-.55,.05-.82,.07h-.87v-10.36c1.86,.02,3.72,.29,5.51,.82,.12,.89,.18,1.78,.18,2.68,.01,2.13-.31,4.25-.96,6.28Zm1.41-9.46c-.26-1.65-.71-3.26-1.34-4.8,2.16,1.37,3.68,3.56,4.21,6.06-.91-.51-1.87-.93-2.87-1.25Zm-.69-.19c-1.76-.49-3.58-.74-5.4-.75v-5.3c1.32,.04,2.62,.35,3.81,.91,.76,1.63,1.3,3.36,1.59,5.14Zm-5.73-7.05c-1.15,0-2.29,.19-3.38,.56,1.02-1.41,2.19-2.17,3.38-2.17s2.36,.75,3.38,2.17c-1.09-.37-2.23-.57-3.38-.58h0Zm-.34,.99v5.33c-1.83,.01-3.64,.26-5.4,.75,.3-1.77,.84-3.5,1.61-5.12,1.19-.58,2.48-.9,3.79-.96Zm0,5.98v10.38h-.87c-.28,0-.55-.04-.82-.07l-.43-.04-.35-.04c-.75-.1-1.5-.24-2.24-.42-.66-2.03-1-4.15-1-6.28,0-.9,.06-1.79,.19-2.68,1.79-.55,3.65-.84,5.53-.87v.02Zm-6.09,.32c-1,.32-1.96,.73-2.88,1.23,.54-2.5,2.05-4.69,4.21-6.06-.63,1.54-1.07,3.16-1.32,4.8v.02Zm-.12,.75c-.09,.82-.14,1.64-.14,2.46,0,2.06,.31,4.11,.91,6.08-.8-.24-1.58-.53-2.34-.89-.23-.46-.45-.93-.63-1.41-.23-.58-.42-1.17-.57-1.78-.14-.66-.22-1.33-.22-2.01,0-.38,.02-.75,.07-1.13,.93-.56,1.91-1.02,2.94-1.37v.04Zm2.44,9.58h0c.35,.07,.7,.13,1.06,.17l.39,.05,.46,.05c.28,0,.58,.05,.87,.07h2.53c.29,0,.58,0,.87-.07l.45-.05,.39-.05c.36-.04,.75-.1,1.07-.17h0c1.2-.22,2.38-.57,3.52-1.02-1.17,1.97-2.74,3.68-4.62,4.99-.98,.1-1.96,.16-2.95,.16s-1.97-.06-2.95-.16c-1.88-1.32-3.46-3.02-4.62-4.99,1.15,.46,2.34,.8,3.56,1.02Zm-11.46-4.24s0,.07,0,.11c0-.04,0-.07,0-.11Zm31.08,0v.12s0-.1,0-.13h0Z"/>
        <path id="path20" class="cls-1" d="M53,28.91c.44-.07,.88-.1,1.33-.1,.71-.06,1.42,.16,1.97,.61,.47,.45,.73,1.09,.69,1.75,.03,.7-.22,1.38-.7,1.89-.6,.5-1.37,.74-2.15,.67-.38,.02-.76,.02-1.14,0v-4.81Zm.63,4.3c.21,.02,.42,.02,.63,0,1.02,.12,1.95-.62,2.07-1.64,.02-.14,.02-.28,0-.42,.09-.95-.61-1.8-1.57-1.89-.14-.01-.27,0-.41,.01-.25,0-.5,.02-.75,.06v3.88Z"/>
        <path id="path22" class="cls-1" d="M58.16,32.07c-.05,.62,.41,1.16,1.02,1.21,.06,0,.11,0,.17,0,.33,0,.66-.05,.97-.18l.1,.45c-.37,.15-.76,.23-1.16,.22-.89,.05-1.66-.64-1.71-1.53,0-.07,0-.15,0-.22-.1-.93,.57-1.77,1.5-1.87,.05,0,.09,0,.14,0,.82,.02,1.47,.71,1.45,1.54,0,.04,0,.07,0,.11,0,.1,0,.2,0,.3h-2.49Zm1.86-.46c.07-.49-.27-.95-.77-1.02-.04,0-.08,0-.11,0-.54,.04-.96,.49-.97,1.03h1.85Z"/>
        <path id="path24" class="cls-1" d="M65.44,33.57c-.31,.14-.66,.21-1,.2-.91,.05-1.69-.65-1.74-1.57,0-.07,0-.14,0-.21-.04-.98,.72-1.81,1.7-1.85,.06,0,.12,0,.18,0,.3,0,.6,.06,.87,.18l-.14,.49c-.23-.12-.49-.18-.75-.17-.73,0-1.31,.59-1.31,1.31s.59,1.31,1.31,1.31c.26,0,.51-.06,.75-.17l.13,.47Z"/>
        <path id="path26" class="cls-1" d="M68.12,33.72l-.05-.44h0c-.25,.34-.65,.53-1.07,.52-.55,.04-1.02-.37-1.07-.92,0-.03,0-.06,0-.09,0-.84,.75-1.31,2.1-1.3v-.07c.03-.41-.27-.77-.68-.81-.04,0-.07,0-.11,0-.32,0-.64,.09-.91,.25l-.14-.42c.33-.2,.71-.31,1.1-.32,1.06,0,1.32,.75,1.32,1.43v1.31c0,.29,.03,.57,.09,.85h-.58Zm-.09-1.8c-.69,0-1.49,.11-1.49,.79-.03,.31,.2,.58,.51,.6,.03,0,.06,0,.09,0,.38,0,.72-.23,.84-.59,.01-.07,.01-.13,0-.2l.05-.61Z"/>
        <path id="path28" class="cls-1" d="M69.64,33.72v-5.14h.63v2.2h0c.25-.42,.71-.67,1.2-.64,.86,.03,1.54,.75,1.51,1.61,0,.06,0,.11-.01,.17,.12,.91-.53,1.74-1.43,1.86-.04,0-.09,0-.13,.01-.47,.01-.9-.24-1.12-.65h0v.58h-.63Zm.63-1.4c0,.08,0,.15,0,.23,.11,.44,.5,.75,.96,.75,.66,0,1.06-.55,1.06-1.34s-.37-1.3-1.04-1.3c-.46,.01-.86,.33-.97,.78,0,.08,0,.17,0,.25v.63Z"/>
        <path id="path30" class="cls-1" d="M74.12,32.07c-.05,.62,.41,1.16,1.02,1.21,.06,0,.11,0,.17,0,.33,0,.66-.05,.97-.18l.1,.45c-.37,.15-.76,.23-1.16,.22-.89,.06-1.66-.62-1.72-1.51,0-.08,0-.16,0-.24-.1-.93,.57-1.77,1.5-1.87,.05,0,.09,0,.14,0,.82,.02,1.47,.71,1.45,1.54,0,.04,0,.07,0,.11,0,.1,0,.2,0,.3h-2.47Zm1.86-.46c.07-.49-.27-.95-.77-1.02-.04,0-.08,0-.11,0-.54,.04-.96,.49-.97,1.03h1.85Z"/>
        <path id="path32" class="cls-1" d="M76.99,33.34l1.58-2.06c.15-.19,.3-.35,.46-.54h-1.9v-.53h2.66v.4l-1.55,2.02c-.15,.19-.29,.37-.45,.55h2.04v.54h-2.83v-.38Z"/>
        <path id="path34" class="cls-1" d="M82.4,33.72l-.05-.44h0c-.25,.34-.65,.53-1.07,.52-.55,.04-1.02-.37-1.07-.92,0-.03,0-.06,0-.09,0-.84,.75-1.31,2.1-1.3v-.07c.04-.41-.25-.78-.66-.82-.06,0-.12,0-.17,0-.32,0-.64,.09-.91,.25l-.14-.42c.35-.21,.75-.31,1.15-.31,1.06,0,1.32,.75,1.32,1.43v1.31c0,.29,.02,.57,.07,.85h-.57Zm-.1-1.79c-.69,0-1.49,.11-1.49,.79-.03,.31,.2,.58,.51,.6,.03,0,.06,0,.09,0,.38,0,.72-.23,.84-.59,.01-.07,.01-.13,0-.2l.05-.61Z"/>
        <path id="path36" class="cls-1" d="M85.82,32.07c-.05,.62,.42,1.16,1.04,1.21,.05,0,.11,0,.16,0,.33,0,.66-.05,.96-.18l.11,.45c-.37,.15-.77,.23-1.17,.22-.89,.06-1.66-.62-1.72-1.51,0-.08,0-.16,0-.24-.1-.93,.57-1.77,1.5-1.87,.05,0,.1,0,.15,0,.82,.02,1.47,.71,1.45,1.54,0,.04,0,.07,0,.11,0,.1,0,.2,0,.3h-2.48Zm1.87-.46c.07-.49-.27-.95-.77-1.02-.04,0-.08,0-.11,0-.54,.04-.97,.49-.98,1.03h1.86Z"/>
        <path id="path38" class="cls-1" d="M89.09,31.15v-.95h.56v.58h0c.23-.42,.68-.67,1.16-.66,.48,0,1.23,.28,1.23,1.49v2.09h-.63v-2.02c0-.56-.21-1.03-.81-1.03-.51,.02-.9,.44-.9,.95v2.1h-.63l.02-2.56Z"/>
        <path id="path40" class="cls-1" d="M95.38,29.23v.97h.91v.52h-.91v1.88c0,.43,.12,.68,.48,.68,.12,0,.25-.01,.37-.04v.48c-.18,.06-.37,.09-.56,.08-.26,.02-.51-.08-.69-.26-.19-.26-.28-.59-.25-.91v-1.9h-.54v-.52h.54v-.84l.65-.13Z"/>
        <path id="path42" class="cls-1" d="M99.93,32.75v.96h-.52v-.57h0c-.24,.4-.68,.65-1.15,.64-.55,0-1.21-.3-1.21-1.49v-2.08h.63v1.93c0,.66,.2,1.11,.75,1.11,.37,0,.7-.23,.84-.58,.03-.11,.05-.22,.05-.33v-2.14h.63l-.02,2.54Z"/>
        <path id="path44" class="cls-1" d="M100.9,33.05c.25,.16,.54,.24,.84,.25,.46,0,.68-.23,.68-.52s-.19-.47-.65-.64c-.63-.22-.93-.57-.93-.99,.02-.59,.53-1.05,1.12-1.03,.03,0,.06,0,.08,0,.3,0,.6,.07,.86,.22l-.16,.46c-.22-.14-.48-.21-.75-.2-.37,0-.58,.22-.58,.47s.21,.42,.66,.59c.61,.23,.92,.54,.92,1.05s-.48,1.05-1.31,1.05c-.34,0-.68-.07-.99-.23l.19-.49Z"/>
        <path id="path46" class="cls-1" d="M106.07,29.23c-.03,.22-.23,.37-.45,.34-.18-.02-.31-.16-.34-.34,0-.21,.17-.39,.38-.4,0,0,.01,0,.02,0,.21,0,.38,.15,.39,.36,0,.01,0,.03,0,.04Zm-.75,4.48v-3.51h.63v3.51h-.63Z"/>
        <path id="path48" class="cls-1" d="M110.07,28.58v5.12h-.57v-.61h0c-.23,.44-.7,.7-1.2,.68-.87-.04-1.55-.79-1.5-1.66,0-.04,0-.07,0-.11-.12-.91,.53-1.75,1.44-1.86,.04,0,.08,0,.11-.01,.42-.03,.82,.18,1.05,.53h0v-2.08h.65Zm-.63,3.06c.01-.09,.01-.18,0-.27-.09-.43-.47-.75-.91-.75-.66,0-1.05,.58-1.05,1.35s.34,1.29,1.03,1.29c.45,0,.83-.31,.93-.75,.01-.09,.01-.18,0-.27v-.61Z"/>
        <path id="path50" class="cls-1" d="M111.48,32.07c-.05,.62,.42,1.16,1.04,1.21,.05,0,.11,0,.16,0,.33,0,.66-.05,.96-.18l.11,.45c-.37,.15-.77,.23-1.17,.22-.89,.06-1.66-.62-1.72-1.51,0-.08,0-.16,0-.24-.1-.93,.57-1.77,1.5-1.87,.05,0,.09,0,.14,0,.82,.02,1.48,.71,1.46,1.53,0,.04,0,.08,0,.11,0,.1,0,.2,0,.3h-2.48Zm1.87-.46c.07-.5-.28-.96-.78-1.02-.03,0-.07,0-.1,0-.54,.04-.97,.49-.98,1.03h1.86Z"/>
        <path id="path52" class="cls-1" d="M116.67,33.72l-.05-.44h0c-.25,.34-.65,.53-1.07,.52-.55,.04-1.02-.37-1.07-.92,0-.03,0-.06,0-.09,0-.84,.75-1.31,2.1-1.3v-.07c.03-.41-.27-.77-.68-.81-.04,0-.07,0-.11,0-.32,0-.64,.09-.91,.25l-.14-.42c.33-.2,.71-.31,1.1-.32,1.07,0,1.33,.75,1.33,1.43v1.31c0,.28,.02,.56,.06,.84h-.55Zm-.09-1.79c-.69,0-1.49,.11-1.49,.79-.03,.31,.2,.58,.51,.6,.03,0,.06,0,.09,0,.38,0,.72-.23,.84-.59,.02-.06,.04-.13,.04-.2v-.61Z"/>
        <path id="path54" class="cls-1" d="M118.13,33.05c.25,.16,.54,.24,.84,.25,.46,0,.67-.23,.67-.52s-.18-.47-.64-.64c-.63-.22-.93-.57-.93-.99,.02-.59,.53-1.05,1.12-1.03,.03,0,.06,0,.08,0,.3,0,.6,.07,.86,.22l-.16,.46c-.22-.14-.48-.21-.75-.2-.37,0-.58,.22-.58,.47s.21,.42,.66,.59c.61,.23,.92,.54,.92,1.05s-.48,1.05-1.31,1.05c-.34,0-.68-.07-.99-.23l.19-.49Z"/>
        <rect id="rect56" class="cls-1" x="121.34" y="28.58" width=".54" height="4.03"/>
        <rect id="rect58" class="cls-1" x="121.34" y="33.27" width=".54" height=".54"/>
      </g>
    </g>
  </g>
</svg>