<?xml version="1.0" encoding="UTF-8" standalone="no"?>
<svg
   xmlns:dc="http://purl.org/dc/elements/1.1/"
   xmlns:cc="http://creativecommons.org/ns#"
   xmlns:rdf="http://www.w3.org/1999/02/22-rdf-syntax-ns#"
   xmlns:svg="http://www.w3.org/2000/svg"
   xmlns="http://www.w3.org/2000/svg"
   xmlns:sodipodi="http://sodipodi.sourceforge.net/DTD/sodipodi-0.dtd"
   xmlns:inkscape="http://www.inkscape.org/namespaces/inkscape"
   id="Capa_1"
   data-name="Capa 1"
   viewBox="0 0 171.72 65.88"
   version="1.1"
   sodipodi:docname="logo-pikaro2.svg"
   inkscape:version="1.0.2 (e86c870879, 2021-01-15, custom)">
  <metadata
     id="metadata63">
    <rdf:RDF>
      <cc:Work
         rdf:about="">
        <dc:format>image/svg+xml</dc:format>
        <dc:type
           rdf:resource="http://purl.org/dc/dcmitype/StillImage" />
        <dc:title></dc:title>
      </cc:Work>
    </rdf:RDF>
  </metadata>
  <sodipodi:namedview
     pagecolor="#ffffff"
     bordercolor="#666666"
     borderopacity="1"
     objecttolerance="10"
     gridtolerance="10"
     guidetolerance="10"
     inkscape:pageopacity="0"
     inkscape:pageshadow="2"
     inkscape:window-width="1920"
     inkscape:window-height="1017"
     id="namedview61"
     showgrid="false"
     inkscape:zoom="5.951549"
     inkscape:cx="85.860001"
     inkscape:cy="32.939999"
     inkscape:window-x="-8"
     inkscape:window-y="-8"
     inkscape:window-maximized="1"
     inkscape:current-layer="Capa_1" />
  <defs
     id="defs4">
    <style
       id="style2">.cls-1{fill:#fff;}</style>
  </defs>
  <path
     class="cls-1"
     d="M81.54,26.12a7.91,7.91,0,0,1-2.72,6.17q-2.34,2.13-6.71,2.16l-5.46,0L66.71,43H65l-.15-21.74a2.93,2.93,0,0,1,1.2-2.56A3.68,3.68,0,0,1,68.23,18l5.06,0a8.12,8.12,0,0,1,6,2.2A8,8,0,0,1,81.54,26.12Zm-1.77.05a6.84,6.84,0,0,0-1.72-4.82,6.2,6.2,0,0,0-4.76-1.82l-5.21,0a1.53,1.53,0,0,0-1.52,1.65l.08,11.72,6,0a7.42,7.42,0,0,0,5.11-1.75A6.38,6.38,0,0,0,79.77,26.17Z"
     id="path6"
     style="fill:#8c6239;fill-opacity:1" />
  <path
     class="cls-1"
     d="M86.49,21.37a.93.93,0,0,1-1.06,1.06c-.68,0-1-.34-1-1.05a.9.9,0,0,1,1-1Q86.49,20.35,86.49,21.37Zm-.18,21.48H84.86L84.74,26.1H86.2Z"
     id="path8"
     style="fill:#8c6239;fill-opacity:1" />
  <path
     class="cls-1"
     d="M105.85,42.69l-1.74,0L97,35,93.1,39.33l0,3.45H91.67L91.5,18H93l.13,19.54,10.77-11.85h1.73l-7.7,8.46Z"
     id="path10"
     style="fill:#8c6239;fill-opacity:1" />
  <path
     class="cls-1"
     d="M125.21,42.58h-1.45l0-3.12a8.26,8.26,0,0,1-3.8,2.88,8.5,8.5,0,0,1-3.09.6,8.17,8.17,0,0,1-6.17-2.38,8.67,8.67,0,0,1-2.37-6.25A8.75,8.75,0,0,1,110.5,28a8.1,8.1,0,0,1,6.16-2.47,8,8,0,0,1,7,3.67l0-3.42h1.46Zm-1.49-5.24V35.07a9.4,9.4,0,0,0-1.7-5.73,6.16,6.16,0,0,0-5.27-2.46A6.56,6.56,0,0,0,111.65,29a7.52,7.52,0,0,0-1.8,5.28,7.57,7.57,0,0,0,1.84,5.27,6.59,6.59,0,0,0,5.15,2,7,7,0,0,0,3.1-.73A8.87,8.87,0,0,0,123.72,37.34Z"
     id="path12"
     style="fill:#8c6239;fill-opacity:1" />
  <path
     class="cls-1"
     d="M138.43,27.32l-.1,0c.12,0-.53-.07-2-.22a5,5,0,0,0-4.06,2.14A9.29,9.29,0,0,0,130.78,35l.05,7.5h-1.42l-.12-16.76h1.42l0,3.28a6.46,6.46,0,0,1,5.83-3.39c.2,0,.82.1,1.86.25Z"
     id="path14"
     style="fill:#8c6239;fill-opacity:1" />
  <path
     class="cls-1"
     d="M157.08,34a8.62,8.62,0,0,1-2.29,6.25,8.84,8.84,0,0,1-12.22.08,8.59,8.59,0,0,1-2.4-6.22,8.62,8.62,0,0,1,2.31-6.25,8.82,8.82,0,0,1,12.25-.07A8.69,8.69,0,0,1,157.08,34Zm-1.54,0a7.61,7.61,0,0,0-1.87-5.24,6.49,6.49,0,0,0-5.08-2.06,6.63,6.63,0,0,0-5.09,2.13,7.53,7.53,0,0,0-1.79,5.27,7.53,7.53,0,0,0,1.87,5.24,6.54,6.54,0,0,0,5.11,2.06,6.45,6.45,0,0,0,5-2.15A7.53,7.53,0,0,0,155.54,34Z"
     id="path16"
     style="fill:#8c6239;fill-opacity:1" />
  <path
     class="cls-1"
     d="M56.28,46.27c0-.05,0-.09,0-.14a25.24,25.24,0,0,0-3-12,.14.14,0,0,0,0-.06A54.5,54.5,0,0,1,47.58,15a8.7,8.7,0,0,0-7.22-7.82l-.14,0a34.08,34.08,0,0,0-5-.3,21.1,21.1,0,0,0-4.64.34l-.08,0a8.59,8.59,0,0,0-7.11,7.75A54.5,54.5,0,0,1,17.69,34.1l-.05.1a25.37,25.37,0,0,0-3,11.95v.37a4,4,0,0,0,0,.43,12.08,12.08,0,0,0,7.59,9.79l.84.3a38.92,38.92,0,0,0,12.35,2,38.62,38.62,0,0,0,12.33-2,9.17,9.17,0,0,0,.88-.3,12,12,0,0,0,7.56-9.8,2.69,2.69,0,0,0,.06-.44c0-.08,0-.16,0-.25ZM46.17,14.7A73.52,73.52,0,0,0,48,24h0a24.82,24.82,0,0,1-5.51-3.48,24.45,24.45,0,0,0-3-2.09L43.88,10A7.25,7.25,0,0,1,46.17,14.7ZM30.83,8.19l.19,0a25.57,25.57,0,0,1,4.15-.26,38.27,38.27,0,0,1,4.64.25.53.53,0,0,0,.17,0,7.1,7.1,0,0,1,3.21,1.29l-4.7,9,.2-.37a7.62,7.62,0,0,0-3.23-.71h0a7.68,7.68,0,0,0-3.21.7l.2.38-4.71-9A7,7,0,0,1,30.83,8.19Zm-6.07,6.46A7.16,7.16,0,0,1,27,10l4.43,8.47a24.74,24.74,0,0,0-3,2.1A25,25,0,0,1,23,24,74,74,0,0,0,24.76,14.65ZM22.89,25.28a24.5,24.5,0,0,0,6.28-3.83c2-1.59,3.8-2.95,6.29-2.95s4.26,1.36,6.3,2.95A24.16,24.16,0,0,0,48,25.28q.28,1,.6,1.92l-.07-.09L49,28.38a28.72,28.72,0,0,1-5.71-3c-2.48-1.58-4.61-2.95-7.87-2.95s-5.39,1.37-7.86,2.95a28.83,28.83,0,0,1-5.72,3C22.25,27.36,22.59,26.32,22.89,25.28ZM15.83,46.16A24.2,24.2,0,0,1,18.77,35a1.11,1.11,0,0,0,.07-.16c.88-1.75,1.62-3.41,2.26-5h0a27.55,27.55,0,0,0,7.24-3.58c2.3-1.47,4.28-2.74,7.13-2.74s4.84,1.27,7.14,2.74a27.31,27.31,0,0,0,7.23,3.58h0c.64,1.63,1.39,3.31,2.28,5.08l0,.11a24.19,24.19,0,0,1,2.94,11.2c0,.15,0,.2,0,.3a10.58,10.58,0,0,1-6.7,8.92,8.29,8.29,0,0,1-.79.28A38.31,38.31,0,0,1,42,57.06a23,23,0,0,0,6.35-9h0a13.89,13.89,0,0,0,1.12-5.48,14,14,0,0,0-8.12-12.72c-1.66-2.8-3.74-4.33-5.91-4.33s-4.25,1.53-5.91,4.33a14,14,0,0,0-8.12,12.72,13.81,13.81,0,0,0,.33,3h0v0h0a13.57,13.57,0,0,0,.8,2.46h0a22.9,22.9,0,0,0,6.35,9,38.51,38.51,0,0,1-5.57-1.41l-.81-.28a10.6,10.6,0,0,1-6.69-8.92A2.36,2.36,0,0,1,15.83,46.16Zm28.56-3.64a27.55,27.55,0,0,0-.2-3.29,19.69,19.69,0,0,1,3.9,1.83,14.93,14.93,0,0,1,.09,1.51,12.64,12.64,0,0,1-.29,2.68,20.92,20.92,0,0,1-.75,2.33,19.88,19.88,0,0,1-.85,1.89,21.89,21.89,0,0,1-3.12,1.19A28.07,28.07,0,0,0,44.39,42.52Zm-2.22,8.41a26,26,0,0,1-3,.56l-.47.06-.58.06c-.36,0-.73.07-1.1.09h-.3l-.87,0V37.83a26.88,26.88,0,0,1,7.37,1.1,28.48,28.48,0,0,1,.24,3.59A27,27,0,0,1,42.17,50.93Zm1.89-12.67a28,28,0,0,0-1.8-6.43,12.78,12.78,0,0,1,5.64,8.11A21.13,21.13,0,0,0,44.06,38.26ZM43.13,38a27.68,27.68,0,0,0-7.23-1v-7.1A12.69,12.69,0,0,1,41,31.12,26.54,26.54,0,0,1,43.13,38Zm-7.67-9.44a14.09,14.09,0,0,0-4.52.75c1.36-1.89,2.93-2.91,4.52-2.91s3.16,1,4.52,2.91A14.09,14.09,0,0,0,35.46,28.54ZM35,29.86V37a27.74,27.74,0,0,0-7.23,1,26.54,26.54,0,0,1,2.15-6.86A12.77,12.77,0,0,1,35,29.86Zm0,8v13.9l-.86,0h-.31c-.37,0-.73-.05-1.1-.09l-.57-.06-.47-.06a26.64,26.64,0,0,1-3-.56,27.3,27.3,0,0,1-1.34-8.41,26.73,26.73,0,0,1,.25-3.59A26.86,26.86,0,0,1,35,37.83Zm-8.15.43A21.23,21.23,0,0,0,23,39.94a12.78,12.78,0,0,1,5.64-8.11A28,28,0,0,0,26.87,38.26Zm-.14,1a29.81,29.81,0,0,0-.19,3.29,27.73,27.73,0,0,0,1.22,8.14,22,22,0,0,1-3.13-1.19c-.31-.62-.6-1.25-.85-1.89A20,20,0,0,1,23,45.26a12.88,12.88,0,0,1-.29-2.69,12.5,12.5,0,0,1,.09-1.51A19.87,19.87,0,0,1,26.73,39.23ZM30,52.11h0c.47.09.94.17,1.42.23l.52.07.61.07c.38,0,.77.07,1.16.09l.33,0c.45,0,.91,0,1.36,0s.91,0,1.36,0l.34,0c.39,0,.77,0,1.16-.09l.6-.07.52-.07c.48-.06,1-.14,1.43-.23h0a25,25,0,0,0,4.71-1.37,21.47,21.47,0,0,1-6.19,6.68c-1.31.13-2.62.21-3.95.21s-2.64-.08-3.95-.21a21.59,21.59,0,0,1-6.19-6.68A25.19,25.19,0,0,0,30,52.11ZM14.66,46.43a.68.68,0,0,1,0,.15A.68.68,0,0,0,14.66,46.43Zm41.6,0s0,.1,0,.16S56.25,46.45,56.26,46.41Z"
     id="path18"
     style="fill:#8c6239;fill-opacity:1" />
  <path
     class="cls-1"
     d="M64.88,45.56a11.59,11.59,0,0,1,1.78-.14,3.74,3.74,0,0,1,2.64.81,3,3,0,0,1,.92,2.34,3.44,3.44,0,0,1-.94,2.53A4,4,0,0,1,66.4,52,12.92,12.92,0,0,1,64.88,52Zm.84,5.75a5.1,5.1,0,0,0,.85,0,2.5,2.5,0,0,0,2.77-2.76,2.32,2.32,0,0,0-2.64-2.51,5.53,5.53,0,0,0-1,.08Z"
     id="path20"
     style="fill:#8c6239;fill-opacity:1" />
  <path
     class="cls-1"
     d="M71.79,49.8a1.5,1.5,0,0,0,1.6,1.62,3.19,3.19,0,0,0,1.3-.24l.14.6a3.7,3.7,0,0,1-1.55.29A2.17,2.17,0,0,1,71,49.72a2.27,2.27,0,0,1,2.19-2.52,2,2,0,0,1,1.93,2.2,3.29,3.29,0,0,1,0,.4Zm2.49-.61a1.21,1.21,0,0,0-1.18-1.38,1.4,1.4,0,0,0-1.3,1.38Z"
     id="path22"
     style="fill:#8c6239;fill-opacity:1" />
  <path
     class="cls-1"
     d="M81.53,51.8a3,3,0,0,1-1.34.27,2.22,2.22,0,0,1-2.33-2.38,2.38,2.38,0,0,1,2.52-2.48,2.74,2.74,0,0,1,1.17.24l-.19.66a1.9,1.9,0,0,0-1-.23,1.76,1.76,0,0,0,0,3.52,2.5,2.5,0,0,0,1-.23Z"
     id="path24"
     style="fill:#8c6239;fill-opacity:1" />
  <path
     class="cls-1"
     d="M85.12,52l-.07-.59h0a1.72,1.72,0,0,1-1.43.69,1.33,1.33,0,0,1-1.43-1.34c0-1.13,1-1.75,2.81-1.74v-.09a1,1,0,0,0-1.06-1.08,2.38,2.38,0,0,0-1.22.34l-.19-.56A2.93,2.93,0,0,1,84,47.2c1.42,0,1.77,1,1.77,1.91v1.75A6.41,6.41,0,0,0,85.89,52ZM85,49.59c-.93,0-2,.15-2,1.06a.75.75,0,0,0,.8.81,1.16,1.16,0,0,0,1.13-.79.81.81,0,0,0,0-.27Z"
     id="path26"
     style="fill:#8c6239;fill-opacity:1" />
  <path
     class="cls-1"
     d="M87.15,52c0-.32,0-.79,0-1.21V45.12H88v2.94h0a1.75,1.75,0,0,1,1.6-.86,2.09,2.09,0,0,1,2,2.38,2.22,2.22,0,0,1-2.1,2.5A1.65,1.65,0,0,1,88,51.21h0l0,.77ZM88,50.1a1.46,1.46,0,0,0,0,.31,1.32,1.32,0,0,0,1.28,1c.89,0,1.42-.73,1.42-1.8s-.49-1.74-1.39-1.74a1.37,1.37,0,0,0-1.3,1.05,1.53,1.53,0,0,0,0,.34Z"
     id="path28"
     style="fill:#8c6239;fill-opacity:1" />
  <path
     class="cls-1"
     d="M93.15,49.8a1.5,1.5,0,0,0,1.6,1.62,3.19,3.19,0,0,0,1.3-.24l.14.6a3.7,3.7,0,0,1-1.55.29,2.17,2.17,0,0,1-2.3-2.35,2.27,2.27,0,0,1,2.19-2.52,2,2,0,0,1,1.93,2.2,3.29,3.29,0,0,1,0,.4Zm2.49-.61a1.21,1.21,0,0,0-1.18-1.38,1.4,1.4,0,0,0-1.3,1.38Z"
     id="path30"
     style="fill:#8c6239;fill-opacity:1" />
  <path
     class="cls-1"
     d="M97,51.49l2.11-2.76c.2-.25.4-.47.61-.72v0H97.18V47.3h3.56v.54l-2.08,2.71c-.2.26-.39.49-.6.73v0h2.73V52H97Z"
     id="path32"
     style="fill:#8c6239;fill-opacity:1" />
  <path
     class="cls-1"
     d="M104.24,52l-.07-.59h0a1.72,1.72,0,0,1-1.43.69,1.33,1.33,0,0,1-1.43-1.34c0-1.13,1-1.75,2.81-1.74v-.09A1,1,0,0,0,103,47.83a2.38,2.38,0,0,0-1.22.34l-.19-.56a2.93,2.93,0,0,1,1.54-.41c1.42,0,1.77,1,1.77,1.91v1.75A6.41,6.41,0,0,0,105,52Zm-.13-2.39c-.93,0-2,.15-2,1.06a.75.75,0,0,0,.8.81,1.16,1.16,0,0,0,1.13-.79.81.81,0,0,0,0-.27Z"
     id="path34"
     style="fill:#8c6239;fill-opacity:1" />
  <path
     class="cls-1"
     d="M108.82,49.8a1.51,1.51,0,0,0,1.61,1.62,3.14,3.14,0,0,0,1.29-.24l.15.6a3.75,3.75,0,0,1-1.56.29,2.17,2.17,0,0,1-2.3-2.35,2.27,2.27,0,0,1,2.2-2.52,2,2,0,0,1,1.93,2.2,3.29,3.29,0,0,1,0,.4Zm2.5-.61a1.21,1.21,0,0,0-1.18-1.38,1.41,1.41,0,0,0-1.31,1.38Z"
     id="path36"
     style="fill:#8c6239;fill-opacity:1" />
  <path
     class="cls-1"
     d="M113.19,48.57c0-.48,0-.88,0-1.27h.75l0,.78h0a1.71,1.71,0,0,1,1.55-.88c.64,0,1.65.38,1.65,2V52h-.85v-2.7c0-.75-.28-1.38-1.08-1.38a1.25,1.25,0,0,0-1.2,1.27V52h-.85Z"
     id="path38"
     style="fill:#8c6239;fill-opacity:1" />
  <path
     class="cls-1"
     d="M121.62,46V47.3h1.22V48h-1.22v2.52c0,.58.16.91.64.91a1.84,1.84,0,0,0,.49-.06l0,.64a2.08,2.08,0,0,1-.75.11,1.18,1.18,0,0,1-.92-.35,1.75,1.75,0,0,1-.33-1.22V48h-.72V47.3h.72V46.18Z"
     id="path40"
     style="fill:#8c6239;fill-opacity:1" />
  <path
     class="cls-1"
     d="M127.7,50.7c0,.49,0,.91,0,1.28H127l0-.76h0a1.76,1.76,0,0,1-1.54.86c-.74,0-1.62-.4-1.62-2V47.3h.85v2.59c0,.89.27,1.49,1,1.49a1.24,1.24,0,0,0,1.12-.77,1.5,1.5,0,0,0,.07-.44V47.3h.85Z"
     id="path42"
     style="fill:#8c6239;fill-opacity:1" />
  <path
     class="cls-1"
     d="M129,51.11a2.25,2.25,0,0,0,1.12.34c.62,0,.91-.31.91-.7s-.25-.63-.87-.86c-.84-.3-1.24-.76-1.24-1.32a1.44,1.44,0,0,1,1.61-1.37,2.26,2.26,0,0,1,1.15.29l-.21.62a1.77,1.77,0,0,0-1-.27c-.5,0-.78.29-.78.63s.28.56.89.79c.81.31,1.23.72,1.23,1.41s-.64,1.4-1.75,1.4a2.74,2.74,0,0,1-1.32-.31Z"
     id="path44"
     style="fill:#8c6239;fill-opacity:1" />
  <path
     class="cls-1"
     d="M135.93,46a.53.53,0,0,1-1.05,0,.52.52,0,0,1,.53-.53A.5.5,0,0,1,135.93,46Zm-1,6V47.3h.85V52Z"
     id="path46"
     style="fill:#8c6239;fill-opacity:1" />
  <path
     class="cls-1"
     d="M141.28,45.12v5.65c0,.42,0,.89,0,1.21h-.76l0-.81h0a1.73,1.73,0,0,1-1.6.91,2.12,2.12,0,0,1-2-2.37A2.23,2.23,0,0,1,139,47.2a1.56,1.56,0,0,1,1.41.71h0V45.12Zm-.85,4.09a1.47,1.47,0,0,0,0-.36,1.25,1.25,0,0,0-1.22-1c-.88,0-1.4.78-1.4,1.81s.46,1.73,1.38,1.73a1.27,1.27,0,0,0,1.24-1,1.37,1.37,0,0,0,0-.36Z"
     id="path48"
     style="fill:#8c6239;fill-opacity:1" />
  <path
     class="cls-1"
     d="M143.16,49.8a1.51,1.51,0,0,0,1.61,1.62,3.14,3.14,0,0,0,1.29-.24l.15.6a3.75,3.75,0,0,1-1.56.29,2.17,2.17,0,0,1-2.3-2.35,2.27,2.27,0,0,1,2.19-2.52,2,2,0,0,1,1.94,2.2,3.29,3.29,0,0,1,0,.4Zm2.5-.61a1.22,1.22,0,0,0-1.18-1.38,1.41,1.41,0,0,0-1.31,1.38Z"
     id="path50"
     style="fill:#8c6239;fill-opacity:1" />
  <path
     class="cls-1"
     d="M150.12,52l-.07-.59h0a1.72,1.72,0,0,1-1.43.69,1.33,1.33,0,0,1-1.43-1.34c0-1.13,1-1.75,2.81-1.74v-.09a1,1,0,0,0-1.06-1.08,2.35,2.35,0,0,0-1.22.34l-.19-.56A2.92,2.92,0,0,1,149,47.2c1.43,0,1.78,1,1.78,1.91v1.75a6.41,6.41,0,0,0,.08,1.12ZM150,49.59c-.93,0-2,.15-2,1.06a.75.75,0,0,0,.8.81,1.16,1.16,0,0,0,1.13-.79.81.81,0,0,0,.05-.27Z"
     id="path52"
     style="fill:#8c6239;fill-opacity:1" />
  <path
     class="cls-1"
     d="M152.07,51.11a2.25,2.25,0,0,0,1.12.34c.61,0,.9-.31.9-.7s-.24-.63-.86-.86c-.84-.3-1.24-.76-1.24-1.32a1.44,1.44,0,0,1,1.61-1.37,2.26,2.26,0,0,1,1.15.29l-.21.62a1.77,1.77,0,0,0-1-.27c-.5,0-.78.29-.78.63s.28.56.89.79c.81.31,1.23.72,1.23,1.41s-.64,1.4-1.75,1.4a2.74,2.74,0,0,1-1.32-.31Z"
     id="path54"
     style="fill:#8c6239;fill-opacity:1" />
  <rect
     class="cls-1"
     x="156.36"
     y="45.12"
     width="0.72"
     height="5.4"
     id="rect56"
     style="fill:#8c6239;fill-opacity:1" />
  <rect
     class="cls-1"
     x="156.36"
     y="51.4"
     width="0.72"
     height="0.72"
     id="rect58"
     style="fill:#8c6239;fill-opacity:1" />
</svg>
