<?xml version="1.0" encoding="UTF-8"?>
<svg id="Capa_2" data-name="Capa 2" xmlns="http://www.w3.org/2000/svg" viewBox="0 0 42.39 42.4">
  <g id="Capa_1-2" data-name="Capa 1">
    <path d="M0,16.13C0,7.1,7.39-.15,16.44,0c7.84,.13,14.55,6.03,15.64,13.76,.57,4.07-.27,7.84-2.52,11.28-.16,.24-.16,.37,.05,.58,3.89,3.87,7.76,7.76,11.65,11.63,.72,.72,1.21,1.51,1.09,2.56-.12,1.16-.74,1.99-1.84,2.38-1.11,.4-2.13,.17-2.97-.67-1.95-1.93-3.89-3.88-5.83-5.82-2.03-2.03-4.06-4.05-6.08-6.09-.22-.22-.35-.23-.61-.06-6.22,4.05-14.05,3.49-19.63-1.39C2,25.2,0,20.75,0,16.13ZM16.16,4.17c-6.63,0-11.96,5.3-11.99,11.93-.02,6.62,5.32,11.98,11.97,11.99,6.58,0,11.94-5.35,11.95-11.93,0-6.62-5.32-11.98-11.93-11.99Z"/>
  </g>
</svg>